<svg xmlns="http://www.w3.org/2000/svg" xmlns:xlink="http://www.w3.org/1999/xlink" width="1920" zoomAndPan="magnify" viewBox="0 0 1440 809.999993" height="1080" preserveAspectRatio="xMidYMid meet" version="1.0"><defs><g/></defs><g fill="#ffbd59" fill-opacity="1"><g transform="translate(24.912565, 544.624042)"><g><path d="M 222.390625 -15.5 C 219.878906 -6.5625 215.832031 0 210.25 4.1875 C 204.664062 8.375 196.148438 10.46875 184.703125 10.46875 C 179.117188 10.46875 172.273438 6.910156 164.171875 -0.203125 C 156.078125 -7.328125 148.679688 -15.632812 141.984375 -25.125 C 128.859375 -17.59375 119.015625 -12.21875 112.453125 -9 C 105.890625 -5.789062 98.769531 -3.414062 91.09375 -1.875 C 83.414062 -0.34375 73.570312 0.421875 61.5625 0.421875 C 46.769531 0.421875 34.625 -3.347656 25.125 -10.890625 C 15.632812 -18.429688 10.890625 -30.160156 10.890625 -46.078125 C 10.890625 -50.816406 11.585938 -56.957031 12.984375 -64.5 C 18.003906 -89.625 22.75 -110.566406 27.21875 -127.328125 C 32.800781 -150.222656 37.128906 -169.488281 40.203125 -185.125 C 26.804688 -193.78125 18.710938 -202.578125 15.921875 -211.515625 C 16.191406 -217.648438 20.097656 -222.253906 27.640625 -225.328125 C 35.179688 -228.398438 43.554688 -229.9375 52.765625 -229.9375 C 66.171875 -229.9375 75.457031 -226.304688 80.625 -219.046875 C 85.789062 -211.785156 88.375 -199.082031 88.375 -180.9375 L 63.25 -77.0625 C 61.570312 -69.25 60.734375 -62.96875 60.734375 -58.21875 C 60.734375 -50.394531 62.613281 -45.085938 66.375 -42.296875 C 70.144531 -39.503906 73.988281 -38.109375 77.90625 -38.109375 C 84.601562 -38.109375 92.769531 -40.0625 102.40625 -43.96875 C 112.039062 -47.882812 119.925781 -52.914062 126.0625 -59.0625 C 120.476562 -70.226562 115.3125 -84.535156 110.5625 -101.984375 C 105.820312 -119.429688 103.453125 -135.273438 103.453125 -149.515625 C 103.453125 -164.035156 106.867188 -177.367188 113.703125 -189.515625 C 120.546875 -201.660156 130.320312 -211.222656 143.03125 -218.203125 C 155.738281 -225.191406 170.742188 -228.6875 188.046875 -228.6875 C 195.867188 -228.6875 203.894531 -225.40625 212.125 -218.84375 C 220.363281 -212.28125 227.207031 -204.878906 232.65625 -196.640625 C 238.101562 -188.398438 240.828125 -182.328125 240.828125 -178.421875 C 240.828125 -157.484375 235.101562 -135.21875 223.65625 -111.625 C 212.207031 -88.03125 197.828125 -67.296875 180.515625 -49.421875 C 184.703125 -41.878906 190.703125 -34.6875 198.515625 -27.84375 C 206.335938 -21.007812 214.296875 -16.894531 222.390625 -15.5 Z M 156.21875 -87.53125 C 179.113281 -122.4375 190.5625 -151.335938 190.5625 -174.234375 C 190.5625 -177.859375 190.003906 -180.785156 188.890625 -183.015625 C 187.773438 -185.253906 186.519531 -186.375 185.125 -186.375 C 180.375 -186.375 174.71875 -184.421875 168.15625 -180.515625 C 161.59375 -176.609375 156.007812 -171.582031 151.40625 -165.4375 C 146.800781 -159.289062 144.5 -152.867188 144.5 -146.171875 C 144.5 -137.796875 145.613281 -127.953125 147.84375 -116.640625 C 150.082031 -105.335938 152.875 -95.632812 156.21875 -87.53125 Z M 156.21875 -87.53125 "/></g></g></g><g fill="#ffbd59" fill-opacity="1"><g transform="translate(277.46987, 544.624042)"><g><path d="M 142.40625 -46.484375 C 132.351562 -43.140625 114.617188 -34.625 89.203125 -20.9375 C 73.566406 -12.28125 60.722656 -5.578125 50.671875 -0.828125 C 40.617188 3.910156 32.664062 6.28125 26.8125 6.28125 C 11.445312 6.28125 3.765625 -1.675781 3.765625 -17.59375 C 3.765625 -20.382812 4.601562 -24.082031 6.28125 -28.6875 C 7.957031 -33.289062 9.5625 -37.269531 11.09375 -40.625 C 12.632812 -43.976562 13.679688 -46.351562 14.234375 -47.75 C 23.171875 -66.738281 30.640625 -85.863281 36.640625 -105.125 C 42.648438 -124.394531 46.628906 -147.429688 48.578125 -174.234375 C 42.441406 -178.140625 37.414062 -183.375 33.5 -189.9375 C 29.59375 -196.5 26.660156 -202.988281 24.703125 -209.40625 C 24.984375 -215.550781 28.960938 -220.507812 36.640625 -224.28125 C 44.328125 -228.050781 52.632812 -229.9375 61.5625 -229.9375 C 74.6875 -229.9375 83.972656 -225.609375 89.421875 -216.953125 C 94.867188 -208.296875 97.59375 -194.753906 97.59375 -176.328125 C 97.59375 -160.691406 94.378906 -140.03125 87.953125 -114.34375 C 81.535156 -88.65625 73.71875 -67.015625 64.5 -49.421875 C 76.226562 -56.117188 91.097656 -63.097656 109.109375 -70.359375 C 127.117188 -77.617188 144.359375 -82.925781 160.828125 -86.28125 C 167.804688 -117.269531 173.945312 -142.609375 179.25 -162.296875 C 184.5625 -181.984375 190.707031 -198.945312 197.6875 -213.1875 C 204.664062 -227.425781 212.34375 -234.546875 220.71875 -234.546875 C 235.238281 -234.546875 243.054688 -228.398438 244.171875 -216.109375 C 241.660156 -213.597656 237.820312 -203.195312 232.65625 -184.90625 C 227.488281 -166.625 222.53125 -146.867188 217.78125 -125.640625 C 213.039062 -104.421875 210.25 -90.320312 209.40625 -83.34375 C 215.832031 -81.394531 220.648438 -77.414062 223.859375 -71.40625 C 227.078125 -65.40625 228.6875 -58.359375 228.6875 -50.265625 C 228.6875 -42.160156 226.867188 -33.78125 223.234375 -25.125 C 219.609375 -16.46875 214.09375 -9.207031 206.6875 -3.34375 C 199.289062 2.507812 190.007812 5.4375 178.84375 5.4375 C 169.34375 5.4375 160.820312 1.671875 153.28125 -5.859375 C 145.75 -13.398438 141.984375 -23.3125 141.984375 -35.59375 C 141.984375 -40.0625 142.125 -43.691406 142.40625 -46.484375 Z M 142.40625 -46.484375 "/></g></g></g><g fill="#ffbd59" fill-opacity="1"><g transform="translate(542.592244, 544.624042)"><g><path d="M -101.78125 -325.421875 C -101.78125 -328.492188 -103.3125 -330.03125 -106.375 -330.03125 C -108.894531 -330.03125 -111.757812 -328.984375 -114.96875 -326.890625 C -118.175781 -324.796875 -120.0625 -323.609375 -120.625 -323.328125 C -124.53125 -320.535156 -127.039062 -319.140625 -128.15625 -319.140625 C -130.945312 -319.140625 -133.671875 -321.582031 -136.328125 -326.46875 C -138.984375 -331.363281 -140.3125 -335.90625 -140.3125 -340.09375 C -140.3125 -343.71875 -137.796875 -347.625 -132.765625 -351.8125 C -127.742188 -356 -121.671875 -359.488281 -114.546875 -362.28125 C -107.429688 -365.070312 -100.941406 -366.46875 -95.078125 -366.46875 C -84.460938 -366.46875 -76.15625 -364.863281 -70.15625 -361.65625 C -64.15625 -358.445312 -61.15625 -352.09375 -61.15625 -342.59375 C -61.15625 -339.800781 -61.710938 -335.539062 -62.828125 -329.8125 C -63.941406 -324.09375 -65.476562 -319.28125 -67.4375 -315.375 C -51.800781 -324.3125 -35.046875 -332.6875 -17.171875 -340.5 C 0.703125 -348.320312 14.523438 -352.234375 24.296875 -352.234375 C 31.828125 -352.234375 38.101562 -350.765625 43.125 -347.828125 C 48.15625 -344.898438 50.671875 -340.085938 50.671875 -333.390625 C 50.671875 -331.148438 49.484375 -328.910156 47.109375 -326.671875 C 44.742188 -324.441406 42.300781 -323.328125 39.78125 -323.328125 C 33.363281 -323.328125 20.800781 -319.835938 2.09375 -312.859375 C -16.613281 -305.878906 -35.179688 -297.710938 -53.609375 -288.359375 C -72.035156 -279.003906 -84.460938 -271.257812 -90.890625 -265.125 C -93.679688 -262.332031 -96.050781 -260.9375 -98 -260.9375 C -102.46875 -260.9375 -106.863281 -263.304688 -111.1875 -268.046875 C -115.519531 -272.796875 -117.6875 -277.40625 -117.6875 -281.875 C -117.6875 -285.5 -116.914062 -289.195312 -115.375 -292.96875 C -113.84375 -296.738281 -111.539062 -301.695312 -108.46875 -307.84375 C -107.914062 -308.957031 -106.660156 -311.535156 -104.703125 -315.578125 C -102.753906 -319.628906 -101.78125 -322.910156 -101.78125 -325.421875 Z M -101.78125 -325.421875 "/></g></g></g><g fill="#ffbd59" fill-opacity="1"><g transform="translate(542.592244, 544.624042)"><g><path d="M 183.03125 -163.765625 C 180.238281 -145.609375 173.675781 -116.148438 163.34375 -75.390625 C 162.226562 -71.203125 159.785156 -61.707031 156.015625 -46.90625 C 152.242188 -32.101562 149.519531 -19.539062 147.84375 -9.21875 C 144.5 -2.507812 140.171875 2.65625 134.859375 6.28125 C 129.554688 9.914062 121.179688 11.734375 109.734375 11.734375 C 100.796875 11.734375 96.328125 7.40625 96.328125 -1.25 C 96.328125 -2.925781 96.609375 -5.441406 97.171875 -8.796875 L 104.703125 -41.046875 C 107.492188 -52.773438 110.078125 -63.316406 112.453125 -72.671875 C 114.828125 -82.023438 116.851562 -90.191406 118.53125 -97.171875 C 127.1875 -132.066406 132.910156 -156.078125 135.703125 -169.203125 C 135.984375 -170.316406 136.125 -171.710938 136.125 -173.390625 C 136.125 -181.210938 132.421875 -187.566406 125.015625 -192.453125 C 117.617188 -197.335938 109.875 -199.78125 101.78125 -199.78125 C 84.75 -199.78125 72.113281 -194.820312 63.875 -184.90625 C 55.632812 -175 51.097656 -161.945312 50.265625 -145.75 C 39.367188 -146.863281 30.359375 -149.375 23.234375 -153.28125 C 16.117188 -157.195312 12.5625 -162.363281 12.5625 -168.78125 C 12.5625 -188.613281 20.585938 -204.738281 36.640625 -217.15625 C 52.703125 -229.582031 75.53125 -235.796875 105.125 -235.796875 C 123.269531 -235.796875 138.207031 -232.234375 149.9375 -225.109375 C 161.664062 -217.992188 170.179688 -209.335938 175.484375 -199.140625 C 180.796875 -188.953125 183.453125 -179.113281 183.453125 -169.625 C 183.453125 -166.832031 183.3125 -164.878906 183.03125 -163.765625 Z M 183.03125 -163.765625 "/></g></g></g><g fill="#ffbd59" fill-opacity="1"><g transform="translate(745.308283, 544.624042)"><g><path d="M 61.15625 -213.609375 C 62.550781 -219.460938 64.570312 -223.992188 67.21875 -227.203125 C 69.875 -230.421875 73.851562 -232.03125 79.15625 -232.03125 C 85.300781 -232.03125 92.003906 -230.84375 99.265625 -228.46875 C 106.523438 -226.09375 110.15625 -223.367188 110.15625 -220.296875 L 92.984375 -156.21875 C 75.953125 -91.164062 66.597656 -54.867188 64.921875 -47.328125 C 64.359375 -45.097656 64.078125 -42.445312 64.078125 -39.375 C 64.078125 -36.582031 64.492188 -34.835938 65.328125 -34.140625 C 66.171875 -33.441406 67.148438 -33.09375 68.265625 -33.09375 C 71.898438 -33.09375 75.8125 -34.90625 80 -38.53125 C 84.1875 -42.164062 87.394531 -46.210938 89.625 -50.671875 C 97.164062 -48.160156 102.191406 -44.671875 104.703125 -40.203125 C 107.210938 -35.734375 108.46875 -30.707031 108.46875 -25.125 C 108.46875 -15.351562 102.460938 -7.46875 90.453125 -1.46875 C 78.453125 4.53125 64.773438 7.53125 49.421875 7.53125 C 41.046875 7.53125 33.578125 3.554688 27.015625 -4.390625 C 20.453125 -12.347656 17.171875 -21.914062 17.171875 -33.09375 C 17.171875 -40.351562 28.335938 -86.84375 50.671875 -172.5625 Z M 167.109375 -194.34375 C 169.066406 -201.59375 171.859375 -208.5 175.484375 -215.0625 C 179.117188 -221.625 183.445312 -224.90625 188.46875 -224.90625 C 194.613281 -224.90625 201.175781 -223.71875 208.15625 -221.34375 C 215.132812 -218.976562 218.625 -216.257812 218.625 -213.1875 L 201.453125 -150.78125 C 184.984375 -91.03125 175.210938 -53.894531 172.140625 -39.375 C 171.578125 -37.132812 171.296875 -34.476562 171.296875 -31.40625 C 171.296875 -28.613281 171.710938 -26.867188 172.546875 -26.171875 C 173.390625 -25.472656 174.367188 -25.125 175.484375 -25.125 C 179.117188 -25.125 183.03125 -26.9375 187.21875 -30.5625 C 191.40625 -34.195312 194.613281 -38.25 196.84375 -42.71875 C 204.382812 -40.207031 209.203125 -36.785156 211.296875 -32.453125 C 213.390625 -28.128906 214.4375 -23.035156 214.4375 -17.171875 C 214.4375 -7.398438 208.429688 0.484375 196.421875 6.484375 C 184.421875 12.492188 170.742188 15.5 155.390625 15.5 C 147.566406 15.5 140.164062 12.632812 133.1875 6.90625 C 126.207031 1.1875 122.71875 -5.859375 122.71875 -14.234375 C 122.71875 -15.628906 122.992188 -18.003906 123.546875 -21.359375 Z M 167.109375 -194.34375 "/></g></g></g><g fill="#ffbd59" fill-opacity="1"><g transform="translate(981.53108, 544.624042)"><g><path d="M 56.125 -31.828125 C 63.382812 -31.828125 69.457031 -35.734375 74.34375 -43.546875 C 79.226562 -51.367188 82.859375 -60.515625 85.234375 -70.984375 C 87.609375 -81.460938 88.796875 -90.191406 88.796875 -97.171875 C 88.796875 -111.410156 84.816406 -123.066406 76.859375 -132.140625 C 68.898438 -141.210938 58.21875 -150.21875 44.8125 -159.15625 C 38.113281 -163.34375 33.296875 -166.757812 30.359375 -169.40625 C 27.429688 -172.0625 25.96875 -174.785156 25.96875 -177.578125 C 25.96875 -184.835938 29.109375 -191.050781 35.390625 -196.21875 C 41.671875 -201.382812 49.835938 -206.203125 59.890625 -210.671875 C 70.785156 -215.140625 86.84375 -220.304688 108.0625 -226.171875 C 129.28125 -232.035156 147.425781 -234.96875 162.5 -234.96875 C 172.832031 -234.96875 181.070312 -233.289062 187.21875 -229.9375 C 193.363281 -226.582031 196.4375 -222.113281 196.4375 -216.53125 C 196.4375 -212.34375 195.175781 -209.269531 192.65625 -207.3125 C 190.144531 -205.363281 186.238281 -203.691406 180.9375 -202.296875 L 170.875 -199.78125 C 154.6875 -196.15625 140.097656 -192.382812 127.109375 -188.46875 C 114.128906 -184.5625 101.914062 -179.535156 90.46875 -173.390625 C 106.664062 -161.941406 118.390625 -149.515625 125.640625 -136.109375 C 132.898438 -122.710938 136.53125 -109.453125 136.53125 -96.328125 C 136.53125 -83.203125 132.96875 -68.539062 125.84375 -52.34375 C 118.726562 -36.15625 108.679688 -22.335938 95.703125 -10.890625 C 82.722656 0.554688 67.710938 6.28125 50.671875 6.28125 C 38.953125 6.28125 28.691406 2.515625 19.890625 -5.015625 C 11.097656 -12.554688 6.703125 -23.585938 6.703125 -38.109375 C 6.703125 -48.722656 9.5625 -57.171875 15.28125 -63.453125 C 21.007812 -69.734375 27.921875 -72.875 36.015625 -72.875 C 41.878906 -72.875 46.832031 -71.476562 50.875 -68.6875 C 54.925781 -65.894531 56.953125 -62.6875 56.953125 -59.0625 C 56.398438 -58.78125 55.425781 -57.941406 54.03125 -56.546875 C 52.632812 -55.148438 51.304688 -53.332031 50.046875 -51.09375 C 48.796875 -48.863281 48.171875 -46.351562 48.171875 -43.5625 C 48.171875 -39.925781 49.003906 -37.0625 50.671875 -34.96875 C 52.347656 -32.875 54.164062 -31.828125 56.125 -31.828125 Z M 56.125 -31.828125 "/></g></g></g><g fill="#ffbd59" fill-opacity="1"><g transform="translate(1168.331348, 544.624042)"><g><path d="M 200.203125 -4.609375 C 196.847656 2.085938 192.519531 7.25 187.21875 10.875 C 181.914062 14.507812 173.539062 16.328125 162.09375 16.328125 C 153.15625 16.328125 148.6875 12 148.6875 3.34375 C 148.6875 1.675781 148.960938 -0.832031 149.515625 -4.1875 L 157.0625 -36.4375 C 159.019531 -43.976562 160.832031 -51.097656 162.5 -57.796875 C 164.175781 -64.492188 165.710938 -70.5 167.109375 -75.8125 C 173.253906 -98.425781 177.789062 -116.644531 180.71875 -130.46875 C 183.65625 -144.289062 185.125 -157.203125 185.125 -169.203125 C 185.125 -189.585938 171.722656 -199.78125 144.921875 -199.78125 C 128.160156 -199.78125 111.890625 -197.054688 96.109375 -191.609375 C 80.335938 -186.171875 68.6875 -178.703125 61.15625 -169.203125 C 70.925781 -168.367188 79.578125 -165.226562 87.109375 -159.78125 C 94.648438 -154.332031 98.421875 -147.421875 98.421875 -139.046875 C 98.421875 -136.535156 98.003906 -133.742188 97.171875 -130.671875 L 87.109375 -94.65625 C 79.859375 -69.800781 74.273438 -49.832031 70.359375 -34.75 C 66.453125 -19.675781 64.359375 -7.253906 64.078125 2.515625 C 59.328125 5.859375 53.460938 7.53125 46.484375 7.53125 C 38.671875 7.53125 32.738281 5.925781 28.6875 2.71875 C 24.632812 -0.488281 22.609375 -4.742188 22.609375 -10.046875 C 22.609375 -26.804688 25.257812 -46.632812 30.5625 -69.53125 C 35.875 -92.425781 43.140625 -116.15625 52.359375 -140.71875 C 49.566406 -142.675781 44.816406 -145.050781 38.109375 -147.84375 C 31.128906 -150.914062 26.035156 -153.773438 22.828125 -156.421875 C 19.617188 -159.078125 18.015625 -162.78125 18.015625 -167.53125 C 18.015625 -179.8125 23.945312 -191.1875 35.8125 -201.65625 C 47.675781 -212.132812 63.519531 -220.441406 83.34375 -226.578125 C 103.164062 -232.722656 124.25 -235.796875 146.59375 -235.796875 C 161.382812 -235.796875 175.269531 -233.070312 188.25 -227.625 C 201.238281 -222.1875 211.710938 -214.09375 219.671875 -203.34375 C 227.628906 -192.59375 231.609375 -179.398438 231.609375 -163.765625 C 231.609375 -149.242188 229.863281 -133.535156 226.375 -116.640625 C 222.882812 -99.742188 218.066406 -79.289062 211.921875 -55.28125 C 206.335938 -34.0625 202.429688 -17.171875 200.203125 -4.609375 Z M 200.203125 -4.609375 "/></g></g></g></svg>