<svg xmlns="http://www.w3.org/2000/svg" xmlns:xlink="http://www.w3.org/1999/xlink" width="1920" zoomAndPan="magnify" viewBox="0 0 1440 809.999993" height="1080" preserveAspectRatio="xMidYMid meet" version="1.0"><defs><g/></defs><g fill="#ffbd59" fill-opacity="1"><g transform="translate(235.848634, 502.252759)"><g><path d="M 154.90625 -10.796875 C 153.15625 -4.566406 150.332031 0.00390625 146.4375 2.921875 C 142.550781 5.835938 136.625 7.296875 128.65625 7.296875 C 124.757812 7.296875 119.992188 4.816406 114.359375 -0.140625 C 108.722656 -5.097656 103.566406 -10.882812 98.890625 -17.5 C 89.753906 -12.25 82.898438 -8.503906 78.328125 -6.265625 C 73.753906 -4.035156 68.789062 -2.382812 63.4375 -1.3125 C 58.09375 -0.238281 51.242188 0.296875 42.890625 0.296875 C 32.578125 0.296875 24.113281 -2.328125 17.5 -7.578125 C 10.882812 -12.835938 7.578125 -21.007812 7.578125 -32.09375 C 7.578125 -35.394531 8.066406 -39.671875 9.046875 -44.921875 C 12.546875 -62.429688 15.851562 -77.019531 18.96875 -88.6875 C 22.851562 -104.632812 25.863281 -118.054688 28 -128.953125 C 18.664062 -134.972656 13.023438 -141.097656 11.078125 -147.328125 C 11.273438 -151.609375 14 -154.816406 19.25 -156.953125 C 24.5 -159.085938 30.335938 -160.15625 36.765625 -160.15625 C 46.097656 -160.15625 52.5625 -157.625 56.15625 -152.5625 C 59.757812 -147.507812 61.5625 -138.664062 61.5625 -126.03125 L 44.046875 -53.671875 C 42.878906 -48.234375 42.296875 -43.859375 42.296875 -40.546875 C 42.296875 -35.097656 43.609375 -31.398438 46.234375 -29.453125 C 48.859375 -27.515625 51.535156 -26.546875 54.265625 -26.546875 C 58.929688 -26.546875 64.617188 -27.90625 71.328125 -30.625 C 78.035156 -33.351562 83.53125 -36.859375 87.8125 -41.140625 C 83.925781 -48.910156 80.328125 -58.875 77.015625 -71.03125 C 73.710938 -83.1875 72.0625 -94.226562 72.0625 -104.15625 C 72.0625 -114.257812 74.441406 -123.539062 79.203125 -132 C 83.972656 -140.46875 90.78125 -147.128906 99.625 -151.984375 C 108.476562 -156.847656 118.929688 -159.28125 130.984375 -159.28125 C 136.429688 -159.28125 142.023438 -156.992188 147.765625 -152.421875 C 153.503906 -147.859375 158.269531 -142.707031 162.0625 -136.96875 C 165.851562 -131.226562 167.75 -127 167.75 -124.28125 C 167.75 -109.695312 163.757812 -94.1875 155.78125 -77.75 C 147.8125 -61.3125 137.796875 -46.867188 125.734375 -34.421875 C 128.648438 -29.171875 132.832031 -24.160156 138.28125 -19.390625 C 143.726562 -14.628906 149.269531 -11.765625 154.90625 -10.796875 Z M 108.8125 -60.96875 C 124.757812 -85.28125 132.734375 -105.410156 132.734375 -121.359375 C 132.734375 -123.890625 132.34375 -125.929688 131.5625 -127.484375 C 130.789062 -129.046875 129.921875 -129.828125 128.953125 -129.828125 C 125.640625 -129.828125 121.695312 -128.460938 117.125 -125.734375 C 112.5625 -123.015625 108.671875 -119.515625 105.453125 -115.234375 C 102.242188 -110.953125 100.640625 -106.476562 100.640625 -101.8125 C 100.640625 -95.976562 101.414062 -89.125 102.96875 -81.25 C 104.53125 -73.375 106.476562 -66.613281 108.8125 -60.96875 Z M 108.8125 -60.96875 "/></g></g></g><g fill="#ffbd59" fill-opacity="1"><g transform="translate(411.76315, 502.252759)"><g><path d="M 99.1875 -32.375 C 92.1875 -30.039062 79.835938 -24.113281 62.140625 -14.59375 C 51.242188 -8.5625 42.296875 -3.890625 35.296875 -0.578125 C 28.296875 2.722656 22.753906 4.375 18.671875 4.375 C 7.972656 4.375 2.625 -1.164062 2.625 -12.25 C 2.625 -14.195312 3.207031 -16.773438 4.375 -19.984375 C 5.539062 -23.191406 6.65625 -25.960938 7.71875 -28.296875 C 8.789062 -30.628906 9.523438 -32.28125 9.921875 -33.25 C 16.140625 -46.476562 21.335938 -59.800781 25.515625 -73.21875 C 29.703125 -86.644531 32.476562 -102.691406 33.84375 -121.359375 C 29.5625 -124.085938 26.054688 -127.734375 23.328125 -132.296875 C 20.609375 -136.867188 18.570312 -141.394531 17.21875 -145.875 C 17.40625 -150.144531 20.171875 -153.59375 25.515625 -156.21875 C 30.867188 -158.84375 36.660156 -160.15625 42.890625 -160.15625 C 52.023438 -160.15625 58.488281 -157.140625 62.28125 -151.109375 C 66.070312 -145.085938 67.96875 -135.65625 67.96875 -122.8125 C 67.96875 -111.925781 65.726562 -97.535156 61.25 -79.640625 C 56.78125 -61.742188 51.335938 -46.671875 44.921875 -34.421875 C 53.097656 -39.085938 63.457031 -43.945312 76 -49 C 88.539062 -54.0625 100.550781 -57.757812 112.03125 -60.09375 C 116.882812 -81.6875 121.160156 -99.335938 124.859375 -113.046875 C 128.554688 -126.753906 132.832031 -138.566406 137.6875 -148.484375 C 142.550781 -158.410156 147.90625 -163.375 153.75 -163.375 C 163.863281 -163.375 169.304688 -159.09375 170.078125 -150.53125 C 168.328125 -148.78125 165.648438 -141.535156 162.046875 -128.796875 C 158.453125 -116.054688 155.003906 -102.296875 151.703125 -87.515625 C 148.398438 -72.734375 146.457031 -62.914062 145.875 -58.0625 C 150.34375 -56.695312 153.691406 -53.921875 155.921875 -49.734375 C 158.160156 -45.554688 159.28125 -40.648438 159.28125 -35.015625 C 159.28125 -29.367188 158.015625 -23.53125 155.484375 -17.5 C 152.960938 -11.46875 149.125 -6.410156 143.96875 -2.328125 C 138.8125 1.753906 132.347656 3.796875 124.578125 3.796875 C 117.960938 3.796875 112.023438 1.171875 106.765625 -4.078125 C 101.515625 -9.335938 98.890625 -16.242188 98.890625 -24.796875 C 98.890625 -27.910156 98.988281 -30.4375 99.1875 -32.375 Z M 99.1875 -32.375 "/></g></g></g><g fill="#ffbd59" fill-opacity="1"><g transform="translate(596.429652, 502.252759)"><g><path d="M -70.890625 -226.671875 C -70.890625 -228.816406 -71.957031 -229.890625 -74.09375 -229.890625 C -75.84375 -229.890625 -77.835938 -229.160156 -80.078125 -227.703125 C -82.316406 -226.242188 -83.628906 -225.414062 -84.015625 -225.21875 C -86.742188 -223.269531 -88.492188 -222.296875 -89.265625 -222.296875 C -91.210938 -222.296875 -93.109375 -224 -94.953125 -227.40625 C -96.804688 -230.8125 -97.734375 -233.972656 -97.734375 -236.890625 C -97.734375 -239.421875 -95.984375 -242.144531 -92.484375 -245.0625 C -88.984375 -247.976562 -84.75 -250.40625 -79.78125 -252.34375 C -74.820312 -254.289062 -70.300781 -255.265625 -66.21875 -255.265625 C -58.832031 -255.265625 -53.046875 -254.144531 -48.859375 -251.90625 C -44.679688 -249.675781 -42.59375 -245.253906 -42.59375 -238.640625 C -42.59375 -236.691406 -42.976562 -233.722656 -43.75 -229.734375 C -44.53125 -225.753906 -45.601562 -222.398438 -46.96875 -219.671875 C -36.070312 -225.898438 -24.398438 -231.734375 -11.953125 -237.171875 C 0.484375 -242.617188 10.109375 -245.34375 16.921875 -245.34375 C 22.171875 -245.34375 26.546875 -244.320312 30.046875 -242.28125 C 33.546875 -240.238281 35.296875 -236.882812 35.296875 -232.21875 C 35.296875 -230.664062 34.46875 -229.109375 32.8125 -227.546875 C 31.164062 -225.992188 29.46875 -225.21875 27.71875 -225.21875 C 23.238281 -225.21875 14.484375 -222.785156 1.453125 -217.921875 C -11.578125 -213.054688 -24.507812 -207.367188 -37.34375 -200.859375 C -50.175781 -194.347656 -58.832031 -188.953125 -63.3125 -184.671875 C -65.25 -182.722656 -66.898438 -181.75 -68.265625 -181.75 C -71.378906 -181.75 -74.441406 -183.398438 -77.453125 -186.703125 C -80.472656 -190.015625 -81.984375 -193.226562 -81.984375 -196.34375 C -81.984375 -198.863281 -81.445312 -201.4375 -80.375 -204.0625 C -79.300781 -206.6875 -77.695312 -210.140625 -75.5625 -214.421875 C -75.164062 -215.203125 -74.285156 -217 -72.921875 -219.8125 C -71.566406 -222.632812 -70.890625 -224.921875 -70.890625 -226.671875 Z M -70.890625 -226.671875 "/></g></g></g><g fill="#ffbd59" fill-opacity="1"><g transform="translate(596.429652, 502.252759)"><g><path d="M 127.484375 -114.0625 C 125.546875 -101.425781 120.976562 -80.910156 113.78125 -52.515625 C 113 -49.597656 111.296875 -42.984375 108.671875 -32.671875 C 106.046875 -22.367188 104.148438 -13.617188 102.984375 -6.421875 C 100.648438 -1.753906 97.632812 1.84375 93.9375 4.375 C 90.238281 6.90625 84.40625 8.171875 76.4375 8.171875 C 70.207031 8.171875 67.09375 5.15625 67.09375 -0.875 C 67.09375 -2.039062 67.289062 -3.789062 67.6875 -6.125 L 72.9375 -28.59375 C 74.875 -36.757812 76.671875 -44.097656 78.328125 -50.609375 C 79.984375 -57.128906 81.394531 -62.820312 82.5625 -67.6875 C 88.59375 -92 92.578125 -108.722656 94.515625 -117.859375 C 94.710938 -118.640625 94.8125 -119.613281 94.8125 -120.78125 C 94.8125 -126.226562 92.234375 -130.648438 87.078125 -134.046875 C 81.929688 -137.453125 76.535156 -139.15625 70.890625 -139.15625 C 59.023438 -139.15625 50.222656 -135.703125 44.484375 -128.796875 C 38.753906 -121.890625 35.597656 -112.800781 35.015625 -101.53125 C 27.421875 -102.300781 21.144531 -104.046875 16.1875 -106.765625 C 11.226562 -109.492188 8.75 -113.09375 8.75 -117.5625 C 8.75 -131.375 14.335938 -142.609375 25.515625 -151.265625 C 36.703125 -159.921875 52.601562 -164.25 73.21875 -164.25 C 85.863281 -164.25 96.269531 -161.769531 104.4375 -156.8125 C 112.601562 -151.851562 118.535156 -145.820312 122.234375 -138.71875 C 125.929688 -131.625 127.78125 -124.769531 127.78125 -118.15625 C 127.78125 -116.207031 127.679688 -114.84375 127.484375 -114.0625 Z M 127.484375 -114.0625 "/></g></g></g><g fill="#ffbd59" fill-opacity="1"><g transform="translate(737.628078, 502.252759)"><g><path d="M 42.59375 -148.78125 C 43.5625 -152.863281 44.96875 -156.023438 46.8125 -158.265625 C 48.664062 -160.503906 51.441406 -161.625 55.140625 -161.625 C 59.421875 -161.625 64.085938 -160.796875 69.140625 -159.140625 C 74.191406 -157.484375 76.71875 -155.585938 76.71875 -153.453125 L 64.765625 -108.8125 C 52.898438 -63.5 46.382812 -38.21875 45.21875 -32.96875 C 44.832031 -31.40625 44.640625 -29.554688 44.640625 -27.421875 C 44.640625 -25.472656 44.929688 -24.253906 45.515625 -23.765625 C 46.097656 -23.285156 46.773438 -23.046875 47.546875 -23.046875 C 50.078125 -23.046875 52.800781 -24.304688 55.71875 -26.828125 C 58.632812 -29.359375 60.875 -32.179688 62.4375 -35.296875 C 67.6875 -33.546875 71.1875 -31.113281 72.9375 -28 C 74.6875 -24.894531 75.5625 -21.394531 75.5625 -17.5 C 75.5625 -10.695312 71.378906 -5.203125 63.015625 -1.015625 C 54.648438 3.160156 45.117188 5.25 34.421875 5.25 C 28.585938 5.25 23.382812 2.476562 18.8125 -3.0625 C 14.25 -8.601562 11.96875 -15.265625 11.96875 -23.046875 C 11.96875 -28.097656 19.742188 -60.476562 35.296875 -120.1875 Z M 116.40625 -135.359375 C 117.757812 -140.421875 119.703125 -145.234375 122.234375 -149.796875 C 124.765625 -154.367188 127.78125 -156.65625 131.28125 -156.65625 C 135.5625 -156.65625 140.128906 -155.828125 144.984375 -154.171875 C 149.847656 -152.523438 152.28125 -150.632812 152.28125 -148.5 L 140.328125 -105.03125 C 128.847656 -63.40625 122.039062 -37.535156 119.90625 -27.421875 C 119.507812 -25.867188 119.3125 -24.019531 119.3125 -21.875 C 119.3125 -19.9375 119.601562 -18.722656 120.1875 -18.234375 C 120.769531 -17.742188 121.453125 -17.5 122.234375 -17.5 C 124.765625 -17.5 127.488281 -18.765625 130.40625 -21.296875 C 133.320312 -23.828125 135.554688 -26.644531 137.109375 -29.75 C 142.359375 -28 145.710938 -25.617188 147.171875 -22.609375 C 148.640625 -19.597656 149.375 -16.050781 149.375 -11.96875 C 149.375 -5.15625 145.191406 0.335938 136.828125 4.515625 C 128.460938 8.703125 118.929688 10.796875 108.234375 10.796875 C 102.785156 10.796875 97.628906 8.800781 92.765625 4.8125 C 87.910156 0.820312 85.484375 -4.085938 85.484375 -9.921875 C 85.484375 -10.890625 85.675781 -12.539062 86.0625 -14.875 Z M 116.40625 -135.359375 "/></g></g></g><g fill="#ffbd59" fill-opacity="1"><g transform="translate(902.165068, 502.252759)"><g><path d="M 39.09375 -22.171875 C 44.144531 -22.171875 48.375 -24.894531 51.78125 -30.34375 C 55.1875 -35.789062 57.710938 -42.160156 59.359375 -49.453125 C 61.015625 -56.742188 61.84375 -62.820312 61.84375 -67.6875 C 61.84375 -77.601562 59.070312 -85.722656 53.53125 -92.046875 C 47.988281 -98.367188 40.550781 -104.640625 31.21875 -110.859375 C 26.550781 -113.773438 23.195312 -116.15625 21.15625 -118 C 19.113281 -119.851562 18.09375 -121.753906 18.09375 -123.703125 C 18.09375 -128.753906 20.28125 -133.078125 24.65625 -136.671875 C 29.03125 -140.273438 34.71875 -143.632812 41.71875 -146.75 C 49.300781 -149.851562 60.484375 -153.445312 75.265625 -157.53125 C 90.046875 -161.613281 102.6875 -163.65625 113.1875 -163.65625 C 120.382812 -163.65625 126.125 -162.488281 130.40625 -160.15625 C 134.6875 -157.820312 136.828125 -154.710938 136.828125 -150.828125 C 136.828125 -147.910156 135.953125 -145.769531 134.203125 -144.40625 C 132.453125 -143.039062 129.726562 -141.875 126.03125 -140.90625 L 119.03125 -139.15625 C 107.75 -136.625 97.582031 -134 88.53125 -131.28125 C 79.488281 -128.5625 70.984375 -125.0625 63.015625 -120.78125 C 74.296875 -112.800781 82.460938 -104.144531 87.515625 -94.8125 C 92.578125 -85.476562 95.109375 -76.238281 95.109375 -67.09375 C 95.109375 -57.957031 92.628906 -47.75 87.671875 -36.46875 C 82.710938 -25.1875 75.707031 -15.554688 66.65625 -7.578125 C 57.613281 0.390625 47.160156 4.375 35.296875 4.375 C 27.128906 4.375 19.984375 1.75 13.859375 -3.5 C 7.734375 -8.75 4.671875 -16.429688 4.671875 -26.546875 C 4.671875 -33.941406 6.660156 -39.828125 10.640625 -44.203125 C 14.628906 -48.578125 19.445312 -50.765625 25.09375 -50.765625 C 29.175781 -50.765625 32.625 -49.789062 35.4375 -47.84375 C 38.257812 -45.894531 39.671875 -43.660156 39.671875 -41.140625 C 39.285156 -40.941406 38.601562 -40.351562 37.625 -39.375 C 36.65625 -38.40625 35.734375 -37.140625 34.859375 -35.578125 C 33.984375 -34.023438 33.546875 -32.28125 33.546875 -30.34375 C 33.546875 -27.8125 34.128906 -25.816406 35.296875 -24.359375 C 36.460938 -22.898438 37.726562 -22.171875 39.09375 -22.171875 Z M 39.09375 -22.171875 "/></g></g></g><g fill="#ffbd59" fill-opacity="1"><g transform="translate(1032.277633, 502.252759)"><g><path d="M 139.453125 -3.203125 C 137.117188 1.460938 134.101562 5.054688 130.40625 7.578125 C 126.707031 10.109375 120.875 11.375 112.90625 11.375 C 106.675781 11.375 103.5625 8.359375 103.5625 2.328125 C 103.5625 1.160156 103.757812 -0.585938 104.15625 -2.921875 L 109.40625 -25.375 C 110.757812 -30.625 112.019531 -35.582031 113.1875 -40.25 C 114.351562 -44.925781 115.425781 -49.109375 116.40625 -52.796875 C 120.675781 -68.554688 123.832031 -81.25 125.875 -90.875 C 127.925781 -100.5 128.953125 -109.492188 128.953125 -117.859375 C 128.953125 -132.054688 119.613281 -139.15625 100.9375 -139.15625 C 89.269531 -139.15625 77.941406 -137.257812 66.953125 -133.46875 C 55.960938 -129.675781 47.84375 -124.472656 42.59375 -117.859375 C 49.394531 -117.273438 55.421875 -115.085938 60.671875 -111.296875 C 65.929688 -107.503906 68.5625 -102.691406 68.5625 -96.859375 C 68.5625 -95.109375 68.269531 -93.160156 67.6875 -91.015625 L 60.6875 -65.9375 C 55.625 -48.625 51.726562 -34.710938 49 -24.203125 C 46.28125 -13.703125 44.828125 -5.050781 44.640625 1.75 C 41.328125 4.082031 37.238281 5.25 32.375 5.25 C 26.9375 5.25 22.804688 4.128906 19.984375 1.890625 C 17.160156 -0.335938 15.75 -3.300781 15.75 -7 C 15.75 -18.664062 17.597656 -32.472656 21.296875 -48.421875 C 24.992188 -64.367188 30.050781 -80.898438 36.46875 -98.015625 C 34.519531 -99.378906 31.210938 -101.035156 26.546875 -102.984375 C 21.679688 -105.117188 18.128906 -107.109375 15.890625 -108.953125 C 13.660156 -110.804688 12.546875 -113.382812 12.546875 -116.6875 C 12.546875 -125.25 16.675781 -133.175781 24.9375 -140.46875 C 33.207031 -147.757812 44.242188 -153.546875 58.046875 -157.828125 C 71.859375 -162.109375 86.546875 -164.25 102.109375 -164.25 C 112.410156 -164.25 122.082031 -162.351562 131.125 -158.5625 C 140.175781 -154.769531 147.472656 -149.128906 153.015625 -141.640625 C 158.554688 -134.148438 161.328125 -124.957031 161.328125 -114.0625 C 161.328125 -103.945312 160.109375 -93.003906 157.671875 -81.234375 C 155.242188 -69.472656 151.894531 -55.234375 147.625 -38.515625 C 143.726562 -23.734375 141.003906 -11.960938 139.453125 -3.203125 Z M 139.453125 -3.203125 "/></g></g></g></svg>